<?xml version="1.0" encoding="UTF-8"?>
<svg xmlns="http://www.w3.org/2000/svg" width="845" height="570" viewBox="0 0 845 570" fill="none">
  <path d="M286.793 345.762C290.949 315.639 236.926 322.91 243.678 351.475C199.525 334.855 163.163 380.041 184.46 420.032C177.188 417.435 165.76 414.839 165.76 431.978C163.163 428.342 154.851 424.707 150.696 435.613C134.592 405.49 110.697 424.707 105.503 442.885C94.5943 427.304 60.8297 438.21 55.635 456.388C39.532 446.001 27.5842 457.946 21.8701 470.411C14.0785 465.737 5.24743 477.163 11.481 483.915C157.968 484.434 459.668 485.161 494.576 483.915C492.498 465.218 467.564 467.295 445.747 465.737C447.825 452.753 438.994 450.156 428.085 452.233C430.683 439.768 403.151 426.784 383.932 424.707C387.568 380.041 337.18 389.389 334.064 408.606C331.986 403.412 327.311 402.374 321.597 408.606C323.155 401.854 320.558 371.211 302.896 377.963C306.532 371.211 306.533 359.266 298.741 359.266C301.858 352.514 296.663 340.049 286.793 345.762Z" fill="white" stroke="#1F1D2E" stroke-width="1.5"></path>
  <path d="M346.365 495.861H173.327C171.596 491.524 177.653 485.886 187.17 488.922C187.603 485.452 195.389 477.213 204.906 484.151C201.878 475.912 204.906 460.879 220.047 463.335C220.047 455.963 226.241 448.157 233.163 456.109C235.758 450.471 245.57 451.192 247.301 466.371C247.733 462.034 253.062 460.012 259.846 471.141C259.846 468.106 258.981 461.6 267.2 463.335C256.385 448.157 275.124 435.293 279.883 448.157C281.613 442.085 293.293 441.364 295.318 448.157C306.704 443.532 315.788 454.662 312.19 466.371C316.516 462.034 325.167 471.141 319.976 481.549C322.572 477.213 333.387 479.815 333.387 485.886C341.173 481.549 347.662 488.488 346.365 495.861Z" fill="white" stroke="#1F1D2E" stroke-width="1.5"></path>
  <path d="M411.548 218.53C411.143 219.615 409.927 220.174 408.827 219.769C407.727 219.365 407.171 218.154 407.575 217.069C407.979 215.984 409.195 215.424 410.295 215.829C411.396 216.234 411.952 217.445 411.548 218.53Z" fill="#1F1D2E" stroke="#1F1D2E" stroke-width="1.5" stroke-linecap="round"></path>
  <path d="M390.135 187.118C389.725 188.218 388.493 188.785 387.378 188.375C386.263 187.965 385.7 186.737 386.109 185.638C386.519 184.538 387.751 183.972 388.866 184.382C389.981 184.792 390.544 186.019 390.135 187.118Z" fill="#1F1D2E" stroke="#1F1D2E" stroke-width="1.5" stroke-linecap="round"></path>
  <path d="M379.662 250.597C379.326 251.499 378.314 251.965 377.398 251.628C376.482 251.291 376.019 250.283 376.356 249.38C376.692 248.478 377.703 248.012 378.62 248.349C379.536 248.686 379.998 249.694 379.662 250.597Z" fill="#1F1D2E" stroke="#1F1D2E" stroke-width="1.5" stroke-linecap="round"></path>
  <path d="M349.368 231.867C348.948 232.996 347.683 233.578 346.538 233.157C345.394 232.736 344.815 231.476 345.236 230.347C345.657 229.218 346.921 228.637 348.066 229.058C349.21 229.478 349.789 230.738 349.368 231.867Z" fill="#1F1D2E" stroke="#1F1D2E" stroke-width="1.5" stroke-linecap="round"></path>
  <path d="M325.968 243.013C325.682 243.779 324.822 244.176 324.043 243.889C323.263 243.602 322.871 242.745 323.156 241.978C323.442 241.212 324.302 240.815 325.081 241.102C325.861 241.389 326.254 242.246 325.968 243.013Z" fill="#1F1D2E" stroke="#1F1D2E" stroke-width="1.5" stroke-linecap="round"></path>
  <path d="M304.275 262.599C303.935 263.514 302.909 263.986 301.98 263.644C301.051 263.303 300.582 262.281 300.923 261.366C301.264 260.451 302.29 259.979 303.219 260.32C304.148 260.662 304.616 261.684 304.275 262.599Z" fill="#1F1D2E" stroke="#1F1D2E" stroke-width="1.5" stroke-linecap="round"></path>
  <path d="M307.906 290.517C307.501 291.604 306.283 292.164 305.181 291.759C304.08 291.353 303.523 290.14 303.927 289.054C304.332 287.967 305.55 287.407 306.652 287.812C307.754 288.218 308.311 289.431 307.906 290.517Z" fill="#1F1D2E" stroke="#1F1D2E" stroke-width="1.5" stroke-linecap="round"></path>
  <path d="M349.497 301.281C349.065 302.438 347.769 303.035 346.596 302.603C345.423 302.172 344.829 300.88 345.261 299.723C345.692 298.566 346.989 297.969 348.162 298.401C349.335 298.832 349.928 300.124 349.497 301.281Z" fill="#1F1D2E" stroke="#1F1D2E" stroke-width="1.5" stroke-linecap="round"></path>
  <path d="M352.828 284.523C352.532 285.317 351.64 285.728 350.832 285.431C350.025 285.134 349.618 284.245 349.914 283.451C350.21 282.656 351.101 282.245 351.909 282.542C352.717 282.84 353.124 283.728 352.828 284.523Z" fill="#1F1D2E" stroke="#1F1D2E" stroke-width="1.5" stroke-linecap="round"></path>
  <path d="M376.516 289.181C376.197 290.038 375.236 290.481 374.366 290.161C373.495 289.841 373.056 288.883 373.376 288.026C373.695 287.17 374.656 286.727 375.526 287.047C376.396 287.367 376.835 288.325 376.516 289.181Z" fill="#1F1D2E" stroke="#1F1D2E" stroke-width="1.5" stroke-linecap="round"></path>
  <path d="M374.01 264.445C373.715 265.238 372.825 265.648 372.019 265.352C371.213 265.055 370.807 264.169 371.102 263.376C371.398 262.583 372.287 262.173 373.093 262.469C373.9 262.766 374.306 263.652 374.01 264.445Z" fill="#1F1D2E" stroke="#1F1D2E" stroke-width="1.5" stroke-linecap="round"></path>
  <path d="M431.433 208.009C431.057 209.019 429.925 209.54 428.901 209.163C427.877 208.786 427.359 207.659 427.735 206.649C428.111 205.639 429.243 205.119 430.268 205.495C431.292 205.872 431.81 207 431.433 208.009Z" fill="#1F1D2E" stroke="#1F1D2E" stroke-width="1.5" stroke-linecap="round"></path>
  <path d="M456.299 210.175C455.927 211.174 454.807 211.69 453.793 211.317C452.78 210.944 452.268 209.828 452.64 208.829C453.012 207.83 454.132 207.315 455.146 207.687C456.159 208.06 456.672 209.176 456.299 210.175Z" fill="#1F1D2E" stroke="#1F1D2E" stroke-width="1.5" stroke-linecap="round"></path>
  <path d="M491.3 218.3C490.782 219.693 489.221 220.41 487.812 219.891C486.402 219.372 485.687 217.819 486.206 216.427C486.725 215.034 488.285 214.317 489.695 214.836C491.105 215.355 491.819 216.908 491.3 218.3Z" fill="#1F1D2E" stroke="#1F1D2E" stroke-width="1.5" stroke-linecap="round"></path>
  <path d="M362.56 253.761C362.282 254.509 361.443 254.896 360.682 254.616C359.922 254.337 359.539 253.5 359.817 252.753C360.096 252.005 360.935 251.618 361.695 251.898C362.456 252.177 362.839 253.014 362.56 253.761Z" fill="#1F1D2E" stroke="#1F1D2E" stroke-width="1.5" stroke-linecap="round"></path>
  <path d="M384.098 190.152L351.756 227.513" stroke="#1F1D2E" stroke-width="1.5" stroke-miterlimit="10" stroke-linecap="round"></path>
  <path d="M405.287 221.381L380.751 245.917" stroke="#1F1D2E" stroke-width="1.5" stroke-miterlimit="10" stroke-linecap="round"></path>
  <path d="M391.904 190.711L406.324 213.585" stroke="#1F1D2E" stroke-width="1.5" stroke-miterlimit="10" stroke-linecap="round"></path>
  <path d="M352.313 233.648L373.855 246.386" stroke="#1F1D2E" stroke-width="1.5" stroke-miterlimit="10" stroke-linecap="round"></path>
  <path d="M372.388 268.777L374.061 283.833" stroke="#1F1D2E" stroke-width="1.5" stroke-miterlimit="10" stroke-linecap="round"></path>
  <path d="M359.562 257.627L353.429 278.817" stroke="#1F1D2E" stroke-width="1.5" stroke-miterlimit="10" stroke-linecap="round"></path>
  <path d="M320.528 245.916L306.03 258.184" stroke="#1F1D2E" stroke-width="1.5" stroke-miterlimit="10" stroke-linecap="round"></path>
  <path d="M303.241 267.105L304.915 284.079" stroke="#1F1D2E" stroke-width="1.5" stroke-miterlimit="10" stroke-linecap="round"></path>
  <path d="M342.276 233.647L329.135 240.34" stroke="#1F1D2E" stroke-width="1.5" stroke-miterlimit="10" stroke-linecap="round"></path>
  <path d="M350.082 288.854L348.409 294.987" stroke="#1F1D2E" stroke-width="1.5" stroke-miterlimit="10" stroke-linecap="round"></path>
  <path d="M414.21 215.247L424.247 209.67" stroke="#1F1D2E" stroke-width="1.5" stroke-miterlimit="10" stroke-linecap="round"></path>
  <path d="M435.4 207.44L448.783 209.113" stroke="#1F1D2E" stroke-width="1.5" stroke-miterlimit="10" stroke-linecap="round"></path>
  <path d="M459.935 210.228L482.798 215.246" stroke="#1F1D2E" stroke-width="1.5" stroke-miterlimit="10" stroke-linecap="round"></path>
  <path d="M375.733 254.837L374.06 259.298" stroke="#1F1D2E" stroke-width="1.5" stroke-miterlimit="10" stroke-linecap="round"></path>
  <path d="M365.696 251.207L372.387 250.376" stroke="#1F1D2E" stroke-width="1.5" stroke-linecap="round"></path>
  <path d="M546.112 293.156C545.272 295.259 542.872 296.293 540.747 295.456C538.623 294.618 537.589 292.231 538.429 290.127C539.269 288.024 541.669 286.99 543.794 287.828C545.918 288.665 546.952 291.052 546.112 293.156Z" fill="#1F1D2E" stroke="#1F1D2E" stroke-width="1.5" stroke-linecap="round"></path>
  <path d="M569.811 311.304C569.286 312.618 567.786 313.265 566.455 312.741C565.125 312.217 564.48 310.723 565.004 309.409C565.529 308.095 567.03 307.447 568.36 307.972C569.69 308.496 570.336 309.99 569.811 311.304Z" fill="#1F1D2E" stroke="#1F1D2E" stroke-width="1.5" stroke-linecap="round"></path>
  <path d="M569.043 276.672C568.35 278.407 566.371 279.26 564.617 278.569C562.864 277.878 562.012 275.908 562.704 274.174C563.397 272.44 565.376 271.586 567.13 272.277C568.883 272.968 569.735 274.938 569.043 276.672Z" fill="#1F1D2E" stroke="#1F1D2E" stroke-width="1.5" stroke-linecap="round"></path>
  <path d="M593.93 191.934C593.348 193.391 591.684 194.109 590.21 193.528C588.735 192.947 588.019 191.29 588.601 189.833C589.183 188.375 590.847 187.657 592.322 188.239C593.796 188.82 594.512 190.476 593.93 191.934Z" fill="#1F1D2E" stroke="#1F1D2E" stroke-width="1.5" stroke-linecap="round"></path>
  <path d="M600.415 169.851C599.595 171.903 597.253 172.912 595.18 172.094C593.107 171.277 592.098 168.948 592.918 166.896C593.737 164.844 596.079 163.835 598.152 164.652C600.225 165.469 601.234 167.799 600.415 169.851Z" fill="#1F1D2E" stroke="#1F1D2E" stroke-width="1.5" stroke-linecap="round"></path>
  <path d="M625.685 176.912C625.291 177.897 624.165 178.385 623.165 177.99C622.165 177.596 621.681 176.474 622.075 175.489C622.468 174.503 623.595 174.015 624.595 174.41C625.595 174.804 626.079 175.926 625.685 176.912Z" fill="#1F1D2E" stroke="#1F1D2E" stroke-width="1.5" stroke-linecap="round"></path>
  <path d="M630.484 203.55C629.77 205.335 627.733 206.214 625.928 205.502C624.123 204.791 623.245 202.763 623.958 200.978C624.671 199.192 626.709 198.314 628.514 199.025C630.319 199.737 631.197 201.764 630.484 203.55Z" fill="#1F1D2E" stroke="#1F1D2E" stroke-width="1.5" stroke-linecap="round"></path>
  <path d="M631.11 254.776C630.499 256.305 628.753 257.058 627.206 256.449C625.659 255.839 624.908 254.102 625.519 252.572C626.129 251.043 627.875 250.29 629.422 250.9C630.969 251.509 631.721 253.247 631.11 254.776Z" fill="#1F1D2E" stroke="#1F1D2E" stroke-width="1.5" stroke-linecap="round"></path>
  <path d="M645.275 293.38C644.472 295.391 642.177 296.38 640.145 295.579C638.113 294.778 637.125 292.495 637.928 290.484C638.731 288.473 641.026 287.484 643.058 288.285C645.09 289.086 646.078 291.369 645.275 293.38Z" fill="#1F1D2E" stroke="#1F1D2E" stroke-width="1.5" stroke-linecap="round"></path>
  <path d="M656.551 313.398C656.284 314.066 655.52 314.398 654.839 314.13C654.159 313.862 653.832 313.099 654.098 312.431C654.365 311.763 655.13 311.431 655.81 311.699C656.49 311.967 656.818 312.73 656.551 313.398Z" fill="#1F1D2E" stroke="#1F1D2E" stroke-width="1.5" stroke-linecap="round"></path>
  <path d="M684.515 321.07C684.035 322.271 682.663 322.864 681.446 322.384C680.229 321.905 679.639 320.539 680.119 319.338C680.599 318.136 681.971 317.544 683.188 318.023C684.405 318.503 684.994 319.869 684.515 321.07Z" fill="#1F1D2E" stroke="#1F1D2E" stroke-width="1.5" stroke-linecap="round"></path>
  <path d="M743.268 287.063C742.76 288.336 741.306 288.964 740.017 288.456C738.728 287.948 738.103 286.5 738.611 285.227C739.12 283.954 740.573 283.327 741.862 283.835C743.152 284.343 743.777 285.79 743.268 287.063Z" fill="#1F1D2E" stroke="#1F1D2E" stroke-width="1.5" stroke-linecap="round"></path>
  <path d="M780.629 242.947C779.899 244.773 777.815 245.672 775.968 244.944C774.122 244.216 773.225 242.142 773.954 240.316C774.684 238.489 776.768 237.591 778.614 238.318C780.461 239.046 781.358 241.12 780.629 242.947Z" fill="#1F1D2E" stroke="#1F1D2E" stroke-width="1.5" stroke-linecap="round"></path>
  <path d="M807.788 220.739C807.095 222.473 805.116 223.326 803.362 222.635C801.609 221.944 800.757 219.975 801.45 218.24C802.142 216.506 804.122 215.653 805.875 216.344C807.628 217.035 808.48 219.004 807.788 220.739Z" fill="#1F1D2E" stroke="#1F1D2E" stroke-width="1.5" stroke-linecap="round"></path>
  <path d="M589.332 197.191L568.127 268.106" stroke="#1F1D2E" stroke-width="1.5" stroke-miterlimit="10" stroke-linecap="round"></path>
  <path d="M567.341 282.961L567.803 304.218" stroke="#1F1D2E" stroke-width="1.5" stroke-miterlimit="10" stroke-linecap="round"></path>
  <path d="M561.765 308.134L547.481 297.207" stroke="#1F1D2E" stroke-width="1.5" stroke-miterlimit="10" stroke-linecap="round"></path>
  <path d="M548.596 286.611L558.633 278.804" stroke="#1F1D2E" stroke-width="1.5" stroke-miterlimit="10" stroke-linecap="round"></path>
  <path d="M627.221 209.66L627.778 246.463" stroke="#1F1D2E" stroke-width="1.5" stroke-miterlimit="10" stroke-linecap="round"></path>
  <path d="M630.169 260.355L638.29 284.095" stroke="#1F1D2E" stroke-width="1.5" stroke-miterlimit="10" stroke-linecap="round"></path>
  <path d="M645.657 299.33L650.92 308.945" stroke="#1F1D2E" stroke-width="1.5" stroke-miterlimit="10" stroke-linecap="round"></path>
  <path d="M661.45 315.329L675.672 318.701" stroke="#1F1D2E" stroke-width="1.5" stroke-miterlimit="10" stroke-linecap="round"></path>
  <path d="M689.345 316.357L734.178 291.106" stroke="#1F1D2E" stroke-width="1.5" stroke-miterlimit="10" stroke-linecap="round"></path>
  <path d="M745.602 281.02L771.647 247.849" stroke="#1F1D2E" stroke-width="1.5" stroke-miterlimit="10" stroke-linecap="round"></path>
  <path d="M783.356 236.148L797.854 223.333" stroke="#1F1D2E" stroke-width="1.5" stroke-miterlimit="10" stroke-linecap="round"></path>
  <path d="M624.458 181.494L626.106 194.921" stroke="#1F1D2E" stroke-width="1.5" stroke-miterlimit="10" stroke-linecap="round"></path>
  <path d="M604.358 169.51L618.299 173.413" stroke="#1F1D2E" stroke-width="1.5" stroke-miterlimit="10" stroke-linecap="round"></path>
  <path d="M594.879 175.645L593.206 184.567" stroke="#1F1D2E" stroke-width="1.5" stroke-miterlimit="10" stroke-linecap="round"></path>
  <path d="M465.161 154.739C464.282 155.643 462.831 155.667 461.92 154.793C461.01 153.919 460.986 152.477 461.865 151.573C462.745 150.669 464.196 150.644 465.106 151.519C466.017 152.393 466.041 153.834 465.161 154.739Z" fill="#1F1D2E" stroke="#1F1D2E" stroke-width="1.5" stroke-linecap="round"></path>
  <path d="M482.168 176.598C481.564 177.219 480.569 177.236 479.944 176.636C479.32 176.036 479.303 175.047 479.906 174.426C480.51 173.806 481.505 173.789 482.13 174.389C482.755 174.989 482.771 175.978 482.168 176.598Z" fill="#1F1D2E" stroke="#1F1D2E" stroke-width="1.5" stroke-linecap="round"></path>
  <path d="M507.533 169.383C506.708 170.231 505.346 170.254 504.491 169.434C503.637 168.613 503.614 167.26 504.44 166.412C505.265 165.563 506.627 165.54 507.482 166.361C508.336 167.181 508.359 168.534 507.533 169.383Z" fill="#1F1D2E" stroke="#1F1D2E" stroke-width="1.5" stroke-linecap="round"></path>
  <path d="M519.438 131.812C518.697 132.574 517.473 132.595 516.705 131.858C515.938 131.121 515.917 129.905 516.659 129.143C517.401 128.38 518.624 128.36 519.392 129.097C520.159 129.834 520.18 131.05 519.438 131.812Z" fill="#1F1D2E" stroke="#1F1D2E" stroke-width="1.5" stroke-linecap="round"></path>
  <path d="M493.876 116.251C493.069 117.08 491.738 117.103 490.903 116.301C490.068 115.499 490.046 114.177 490.853 113.348C491.66 112.518 492.99 112.496 493.825 113.298C494.66 114.1 494.682 115.422 493.876 116.251Z" fill="#1F1D2E" stroke="#1F1D2E" stroke-width="1.5" stroke-linecap="round"></path>
  <path d="M464.726 139.239C463.896 140.092 462.527 140.115 461.669 139.29C460.81 138.466 460.787 137.106 461.617 136.254C462.447 135.401 463.815 135.378 464.674 136.202C465.532 137.027 465.555 138.386 464.726 139.239Z" fill="#1F1D2E" stroke="#1F1D2E" stroke-width="1.5" stroke-linecap="round"></path>
  <path d="M478.521 138.6C477.908 139.23 476.896 139.247 476.261 138.638C475.626 138.028 475.609 137.023 476.222 136.392C476.836 135.762 477.848 135.744 478.483 136.354C479.118 136.964 479.134 137.969 478.521 138.6Z" fill="#1F1D2E" stroke="#1F1D2E" stroke-width="1.5" stroke-linecap="round"></path>
  <path d="M489.488 119.326L480.566 133.824" stroke="#1F1D2E" stroke-width="1.5" stroke-miterlimit="10" stroke-linecap="round"></path>
  <path d="M497.851 117.546L513.466 126.016" stroke="#1F1D2E" stroke-width="1.5" stroke-miterlimit="10" stroke-linecap="round"></path>
  <path d="M516.813 135.496L508.448 162.82" stroke="#1F1D2E" stroke-width="1.5" stroke-miterlimit="10" stroke-linecap="round"></path>
  <path d="M500.642 170.069L485.978 174.525" stroke="#1F1D2E" stroke-width="1.5" stroke-miterlimit="10" stroke-linecap="round"></path>
  <path d="M466.625 158.359L477.502 172.118" stroke="#1F1D2E" stroke-width="1.5" stroke-miterlimit="10" stroke-linecap="round"></path>
  <path d="M463.28 143.303L463.28 147.764" stroke="#1F1D2E" stroke-width="1.5" stroke-miterlimit="10" stroke-linecap="round"></path>
  <path d="M472.202 137.727L468.856 137.727" stroke="#1F1D2E" stroke-width="1.5" stroke-miterlimit="10" stroke-linecap="round"></path>
  <ellipse cx="3.79527" cy="3.77856" rx="3.79527" ry="3.77856" transform="matrix(0.921444 0.388514 -0.392832 0.919612 541.908 45.2246)" fill="#1F1D2E"></ellipse>
  <ellipse cx="2.71091" cy="2.69897" rx="2.71091" ry="2.69897" transform="matrix(0.921444 0.388514 -0.392832 0.919612 589.182 31.1797)" fill="#1F1D2E"></ellipse>
  <ellipse cx="2.71091" cy="2.69897" rx="2.71091" ry="2.69897" transform="matrix(0.921438 0.388528 -0.392818 0.919617 516.866 18.2637)" fill="#1F1D2E"></ellipse>
  <ellipse cx="2.53365" cy="2.5225" rx="2.53365" ry="2.5225" transform="matrix(0.921444 0.388514 -0.392832 0.919612 562.936 39.2441)" fill="#1F1D2E"></ellipse>
  <ellipse cx="3.25309" cy="3.23876" rx="3.25309" ry="3.23876" transform="matrix(0.921444 0.388514 -0.392832 0.919612 527.366 84.7852)" fill="#1F1D2E"></ellipse>
  <path d="M521.83 25.6507L539.195 44.667" stroke="#1F1D2E" stroke-width="1.5" stroke-linecap="round"></path>
  <path d="M585.398 36.248L569.785 40.709" stroke="#1F1D2E" stroke-width="1.5" stroke-linecap="round"></path>
  <path d="M559.19 44.6133L550.268 47.959" stroke="#1F1D2E" stroke-width="1.5" stroke-linecap="round"></path>
  <path d="M541.347 56.3183L531.31 83.6419" stroke="#1F1D2E" stroke-width="1.5" stroke-linecap="round"></path>
  <path d="M600.278 107.584C600.387 108.723 599.545 109.743 598.387 109.853C597.229 109.963 596.208 109.119 596.099 107.98C595.99 106.84 596.831 105.82 597.99 105.71C599.148 105.601 600.168 106.444 600.278 107.584Z" fill="#1F1D2E" stroke="#1F1D2E" stroke-width="1.5" stroke-linecap="round"></path>
  <path d="M638.34 35.5241C638.459 36.7656 637.543 37.876 636.282 37.9954C635.021 38.1148 633.91 37.1966 633.791 35.9551C633.672 34.7136 634.588 33.6032 635.849 33.4838C637.11 33.3644 638.221 34.2827 638.34 35.5241Z" fill="#1F1D2E" stroke="#1F1D2E" stroke-width="1.5" stroke-linecap="round"></path>
  <path d="M665.591 36.6163C665.747 38.2405 664.547 39.6908 662.901 39.8467C661.256 40.0026 659.802 38.8036 659.646 37.1794C659.49 35.5552 660.69 34.1049 662.336 33.949C663.981 33.7931 665.435 34.9921 665.591 36.6163Z" fill="#1F1D2E" stroke="#1F1D2E" stroke-width="1.5" stroke-linecap="round"></path>
  <path d="M711.015 85.8983C711.129 87.0899 710.25 88.156 709.039 88.2706C707.828 88.3853 706.762 87.5036 706.647 86.312C706.533 85.1205 707.413 84.0543 708.623 83.9397C709.834 83.825 710.901 84.7067 711.015 85.8983Z" fill="#1F1D2E" stroke="#1F1D2E" stroke-width="1.5" stroke-linecap="round"></path>
  <path d="M737.837 54.136C737.953 55.3499 737.057 56.4358 735.824 56.5526C734.591 56.6694 733.504 55.7713 733.387 54.5575C733.271 53.3436 734.167 52.2577 735.4 52.1409C736.633 52.0241 737.72 52.9222 737.837 54.136Z" fill="#1F1D2E" stroke="#1F1D2E" stroke-width="1.5" stroke-linecap="round"></path>
  <path d="M713.642 7.50059C713.786 9.00081 712.687 10.3322 711.186 10.4743C709.686 10.6164 708.353 9.51549 708.209 8.01527C708.065 6.51506 709.164 5.18367 710.665 5.04155C712.165 4.89942 713.498 6.00037 713.642 7.50059Z" fill="#1F1D2E" stroke="#1F1D2E" stroke-width="1.5" stroke-linecap="round"></path>
  <path d="M633.355 40.7067L601.002 102.567" stroke="#1F1D2E" stroke-width="1.5" stroke-miterlimit="10" stroke-linecap="round"></path>
  <path d="M641.72 35.6895L655.66 36.2471" stroke="#1F1D2E" stroke-width="1.5" stroke-miterlimit="10" stroke-linecap="round"></path>
  <path d="M667.371 41.2637L704.174 82.5279" stroke="#1F1D2E" stroke-width="1.5" stroke-miterlimit="10" stroke-linecap="round"></path>
  <path d="M713.653 13.3828L733.17 49.0708" stroke="#1F1D2E" stroke-width="1.5" stroke-miterlimit="10" stroke-linecap="round"></path>
  <path d="M732.054 59.1075L713.653 83.0854" stroke="#1F1D2E" stroke-width="1.5" stroke-miterlimit="10" stroke-linecap="round"></path>
  <path fill-rule="evenodd" clip-rule="evenodd" d="M465.511 317.871H678.496C679.33 317.871 679.999 318.542 679.999 319.364V441.754H692.565C693.395 441.754 694.072 441.034 694.072 440.137V305.218C694.072 304.328 693.401 303.602 692.565 303.602H468.29C466.759 303.602 465.511 304.934 465.511 306.583V317.871Z" fill="#1F1D2E"></path>
  <path d="M465.511 317.871H464.761V318.621H465.511V317.871ZM679.999 441.754H679.249V442.504H679.999V441.754ZM465.511 318.621H678.496V317.121H465.511V318.621ZM678.496 318.621C678.918 318.621 679.249 318.959 679.249 319.364H680.749C680.749 318.125 679.741 317.121 678.496 317.121V318.621ZM679.249 319.364V441.754H680.749V319.364H679.249ZM692.565 441.004H679.999V442.504H692.565V441.004ZM693.322 440.137C693.322 440.669 692.934 441.004 692.565 441.004V442.504C693.856 442.504 694.822 441.4 694.822 440.137H693.322ZM693.322 305.218V440.137H694.822V305.218H693.322ZM692.565 304.352C692.936 304.352 693.322 304.69 693.322 305.218H694.822C694.822 303.966 693.865 302.852 692.565 302.852V304.352ZM468.29 304.352H692.565V302.852H468.29V304.352ZM466.261 306.583C466.261 305.299 467.221 304.352 468.29 304.352V302.852C466.297 302.852 464.761 304.569 464.761 306.583H466.261ZM466.261 317.871V306.583H464.761V317.871H466.261Z" fill="#1F1D2E"></path>
  <path d="M452.127 355.311V320.623C452.127 319.102 453.371 317.871 454.897 317.871H678.495C679.329 317.871 679.998 318.542 679.998 319.364V443.933C679.998 444.761 679.323 445.425 678.495 445.425H609.863" stroke="#1F1D2E" stroke-width="1.5" stroke-miterlimit="10" stroke-linecap="round"></path>
  <mask id="mask0_771_5697" style="mask-type:alpha" maskUnits="userSpaceOnUse" x="431" y="238" width="60" height="116">
    <path d="M460.028 281.778C460.028 283.246 458.829 284.445 457.34 284.445C455.85 284.445 454.651 283.246 454.651 281.778C454.651 280.31 455.85 279.111 457.34 279.111C458.829 279.111 460.028 280.31 460.028 281.778Z" fill="#1F1D2E" stroke="#1F1D2E" stroke-width="1.5" stroke-linecap="round"></path>
    <path d="M489.749 274.09C489.749 275.086 488.935 275.902 487.921 275.902C486.906 275.902 486.092 275.086 486.092 274.09C486.092 273.093 486.906 272.277 487.921 272.277C488.935 272.277 489.749 273.093 489.749 274.09Z" fill="#1F1D2E" stroke="#1F1D2E" stroke-width="1.5" stroke-linecap="round"></path>
    <path d="M455.117 242.245C455.117 243.982 453.698 245.399 451.937 245.399C450.177 245.399 448.758 243.982 448.758 242.245C448.758 240.507 450.177 239.09 451.937 239.09C453.698 239.09 455.117 240.507 455.117 242.245Z" fill="#1F1D2E" stroke="#1F1D2E" stroke-width="1.5" stroke-linecap="round"></path>
    <path d="M436.693 284.826C436.693 286.092 435.658 287.126 434.373 287.126C433.087 287.126 432.053 286.092 432.053 284.826C432.053 283.56 433.087 282.525 434.373 282.525C435.658 282.525 436.693 283.56 436.693 284.826Z" fill="#1F1D2E" stroke="#1F1D2E" stroke-width="1.5" stroke-linecap="round"></path>
    <path d="M465.925 350.104C465.925 351.303 464.945 352.283 463.727 352.283C462.509 352.283 461.53 351.303 461.53 350.104C461.53 348.906 462.509 347.926 463.727 347.926C464.945 347.926 465.925 348.906 465.925 350.104Z" fill="#1F1D2E" stroke="#1F1D2E" stroke-width="1.5" stroke-linecap="round"></path>
    <path d="M447.987 248.295L436.277 278.964" stroke="#1F1D2E" stroke-width="1.5" stroke-miterlimit="10" stroke-linecap="round"></path>
    <path d="M457.469 246.623L483.993 269.985" stroke="#1F1D2E" stroke-width="1.5" stroke-miterlimit="10" stroke-linecap="round"></path>
    <path d="M486.465 278.963L466.676 344.736" stroke="#1F1D2E" stroke-width="1.5" stroke-miterlimit="10" stroke-linecap="round"></path>
    <path d="M458.026 287.887L463.728 344.738" stroke="#1F1D2E" stroke-width="1.5" stroke-miterlimit="10" stroke-linecap="round"></path>
    <path d="M436.835 289.793L459.794 345.226" stroke="#1F1D2E" stroke-width="1.5" stroke-miterlimit="10" stroke-linecap="round"></path>
    <path d="M463.602 279.764L482.424 275.188" stroke="#1F1D2E" stroke-width="1.5" stroke-miterlimit="10" stroke-linecap="round"></path>
    <path d="M440.182 283.664L451.014 282.416" stroke="#1F1D2E" stroke-width="1.5" stroke-miterlimit="10" stroke-linecap="round"></path>
  </mask>
  <g mask="url(#mask0_771_5697)">
    <path d="M452.305 320.043V354.73L399.263 266.659L448.447 186.613L552.121 240.62L678.673 317.29H455.075C453.549 317.29 452.305 318.521 452.305 320.043Z" fill="#1F1D2E"></path>
  </g>
  <path d="M716.678 292.353C710.575 258.328 699.317 221.551 691.142 208.78L704.336 202.537C713.557 215.292 731.538 239.92 744.894 265.542C758.251 291.163 776.3 331.296 783.935 364.678C791.998 399.936 793.744 418.973 792.138 448.874C790.079 487.208 762.811 502.497 758.982 518.684L717.137 415.888C720.005 383.952 724.09 333.669 716.678 292.353Z" fill="white" stroke="#00668C" stroke-width="1.5" stroke-linecap="round"></path>
  <path d="M610.585 54.7394C610.674 64.9591 618.746 119.227 641.82 151.758C658.89 175.822 684.647 216.139 690.677 220.96C700.068 217.989 709.083 213.887 715.311 208.305C715.944 207.741 716.546 207.158 717.118 206.563C711.565 189.715 696.64 153.964 689.746 140.982C678.789 120.351 667.687 101.451 646.22 81.2402C631.301 67.2062 622.091 60.5897 613.306 53.9549C610.342 51.724 610.585 54.7394 610.585 54.7394Z" fill="#00668C" stroke="#00668C" stroke-width="1.5" stroke-miterlimit="10" stroke-linecap="round"></path>
  <path d="M652.045 134.469C658.665 133.955 663.614 128.183 663.099 121.576C662.584 114.97 656.8 110.031 650.181 110.545C643.561 111.06 638.612 116.832 639.126 123.439C639.641 130.045 645.425 134.984 652.045 134.469Z" fill="white" stroke="#00668C" stroke-width="1.5" stroke-miterlimit="10" stroke-linecap="round"></path>
  <path d="M660.714 170.875C659.475 177.466 659.686 189.998 664.107 205.92C668.528 221.842 675.999 237.792 679.185 242.966C677.763 226.414 672.752 208.025 678.335 196.351C672.177 187.043 660.714 170.875 660.714 170.875Z" fill="#00668C" stroke="#F2F4FB" stroke-width="1.5" stroke-miterlimit="10" stroke-linecap="round"></path>
  <path d="M688.828 155.865L701.377 183.322C701.377 183.322 710.393 182.622 720.422 192.29C730.451 201.958 736.395 208.505 737.845 210.111C729.726 194.344 721.436 180.17 713.556 172.193C701.088 159.585 688.828 155.865 688.828 155.865Z" fill="#00668C" stroke="#F2F4FB" stroke-width="1.5" stroke-miterlimit="10" stroke-linecap="round"></path>
  <path d="M499.58 362.975C488.373 368.055 487.346 381.858 494.921 390.603C502.262 399.079 520.715 400.776 533.23 396.113C543.578 392.258 548.039 388.687 556.132 383.621" stroke="#1F1D2E" stroke-width="1.5" stroke-miterlimit="10" stroke-linecap="round"></path>
  <path d="M617.619 397.354C605.394 398.999 593.439 397.142 583.107 391.13C570.579 383.839 555.68 370.365 540.675 363.433C533.672 360.19 525.555 358.569 515.806 358.61" stroke="#1F1D2E" stroke-width="1.5" stroke-miterlimit="10" stroke-linecap="round"></path>
  <path d="M570.973 373.908C580.381 365.826 591.135 358.653 603.802 357.461C616.468 356.27 627.779 360.364 634.175 368.255C639.49 374.812 639.021 389.223 629.747 394.355" stroke="#1F1D2E" stroke-width="1.5" stroke-miterlimit="10" stroke-linecap="round"></path>
  <path d="M517.188 364.515L506.693 358.975L517.188 353.435V364.515Z" fill="#1F1D2E" stroke="#1F1D2E" stroke-width="1.5" stroke-linecap="round"></path>
  <path d="M547.29 382.581L559.05 380.869L553.895 391.508L547.29 382.581Z" fill="#1F1D2E" stroke="#1F1D2E" stroke-width="1.5" stroke-linecap="round"></path>
  <path d="M638.077 393.484L626.66 396.762L630.317 385.528L638.077 393.484Z" fill="#1F1D2E" stroke="#1F1D2E" stroke-width="1.5" stroke-linecap="round"></path>
  <path d="M690.383 440.482C689.958 420.633 710.787 407.541 724.083 419.789C729.491 402.79 764.773 395.376 771.999 415.565C788.294 413.454 798.071 426.405 800.621 438.512C806.573 430.347 824.285 427.39 827.685 434.148C841.288 426.968 854.466 436.259 848.514 443.861C869.769 444.706 869.769 462.021 856.591 463.71C862.542 472.157 848.514 481.87 835.762 476.802C836.612 490.316 821.309 497.918 814.508 488.627C806.856 502.986 793.253 494.293 785.602 492.721C789.002 513.122 775.4 532.971 760.947 529.592C766.473 546.063 717.588 578.159 683.582 555.354C661.477 568.868 650.85 555.776 652.55 542.262C635.547 543.107 631.721 532.549 642.773 523.257C632.571 524.102 628.427 518.19 629.171 508.899C617.162 515.656 593.157 519.386 584.537 503.831C576.106 488.627 589.213 473.424 601.115 471.734C589.213 458.642 593.889 444.706 607.916 446.395C603.241 433.303 615.568 424.857 624.92 436.259C630.021 414.299 649.575 423.59 653.826 444.706C661.477 428.657 671.679 436.259 677.63 446.395C680.181 427.813 690.383 440.482 690.383 440.482Z" fill="white" stroke="#1F1D2E" stroke-width="1.5" stroke-miterlimit="10" stroke-linecap="round"></path>
  <path d="M856.591 463.711C862.543 472.158 848.515 481.871 835.762 476.803C836.612 490.318 821.309 497.919 814.508 488.628C807.163 502.424 794.316 494.952 786.535 492.945C786.535 492.945 781.623 490.717 780.076 486.094C776.038 489.473 769.874 487.42 769.732 483.338C762.612 486.505 753.19 487.15 750.533 478.282C745.361 485.25 739.622 484.616 735.442 483.338C731.05 481.989 727.791 479.337 727.932 472.721C717.518 472.299 717.825 455.101 726.941 452.942C723.327 450.197 720.198 444.801 721.627 439.428C723.54 432.248 735.655 430.137 742.456 434.782C743.731 430.559 749.895 425.914 754.996 432.037C764.348 423.169 776.038 432.671 777.313 443.651C779.864 441.328 783.264 441.117 784.965 450.619C785.909 444.179 793.502 436.648 800.622 438.513C806.573 430.348 824.285 427.392 827.686 434.149C841.288 426.969 854.466 436.261 848.515 443.862C869.769 444.707 869.769 462.022 856.591 463.711Z" fill="white" stroke="#1F1D2E" stroke-width="1.5" stroke-miterlimit="10" stroke-linecap="round"></path>
  <path d="M392.462 413.913C388.24 406.179 391.904 403.929 393.867 405.221C395.829 406.513 406.843 417.806 417.324 418.333C426 418.77 437.611 407.42 438.187 411.55C437.072 418.799 431.723 447.039 429.125 451.194C426.528 455.349 422.661 455.166 420.295 455.349C421.265 458.112 422.083 467.485 421.679 469.138C425.94 469.146 430.115 470.469 432.132 473.109C433.511 474.915 435.773 478.916 438.154 483.405C442.758 492.083 447.811 502.586 447.811 502.586H393.867C396.704 500.385 402.92 485.824 407.666 477.587C408.767 475.676 409.788 474.106 410.67 473.109C413.02 470.454 417.393 469.13 421.679 469.138C422.083 467.485 421.265 458.112 420.295 455.349C417.654 455.553 413.542 453.791 410.67 449.117C407.799 444.442 395.808 420.041 392.462 413.913Z" fill="white"></path>
  <path d="M438.187 411.55C441.141 432.74 450.526 460.652 456.521 464.936C462.517 469.22 469.587 473.109 477.33 473.109M438.187 411.55C437.611 407.42 426 418.77 417.324 418.333C406.843 417.806 395.829 406.513 393.867 405.221C391.904 403.929 388.24 406.179 392.462 413.913C395.808 420.041 407.799 444.442 410.67 449.117C413.542 453.791 417.654 455.553 420.295 455.349M438.187 411.55C437.072 418.799 431.723 447.039 429.125 451.194C426.528 455.349 422.661 455.166 420.295 455.349M390.53 408.341C387.908 432.67 385.303 447.609 384.446 460.46C383.59 473.311 409.585 479.84 443.943 484.167M420.295 455.349C421.265 458.112 422.083 467.485 421.679 469.138M421.679 469.138C417.393 469.13 413.02 470.454 410.67 473.109C405.986 478.404 397.362 499.874 393.867 502.586H447.811C447.811 502.586 436.177 478.404 432.132 473.109C430.115 470.469 425.94 469.146 421.679 469.138Z" stroke="#1F1D2E" stroke-width="1.5" stroke-linecap="round"></path>
  <path d="M414.767 404.301C412.536 408.762 414.767 416.569 414.767 417.684" stroke="#1F1D2E" stroke-width="1.5"></path>
  <path d="M426.027 400.393C423.77 403.383 421.006 404.657 418.102 404.657C416.249 404.657 414.062 403.968 411.529 402.623C408.481 401.006 404.342 397.156 402.049 393.144C400.698 390.779 399.872 384.729 399.732 379.212C399.641 375.623 399.841 372.259 400.376 370.281C401.28 366.935 404.279 362.736 409.856 361.917C412.289 361.559 415.023 361.304 417.105 361.378C424.912 361.654 430.439 364.147 432.161 369.979C435.594 381.607 431.5 393.144 426.027 400.393Z" fill="white"></path>
  <path d="M418.102 404.657C421.006 404.657 423.77 403.383 426.027 400.393C431.5 393.144 435.594 381.607 432.161 369.979C430.439 364.147 424.912 361.654 417.105 361.378M418.102 404.657C416.249 404.657 414.062 403.968 411.529 402.623C408.481 401.006 404.342 397.156 402.049 393.144C399.819 389.24 399.019 375.3 400.376 370.281C401.28 366.935 404.279 362.736 409.856 361.917C412.289 361.559 415.023 361.304 417.105 361.378M418.102 404.657C419.893 401.508 421.566 395.932 422.123 388.683C422.736 380.722 421.008 367.493 417.105 361.378M399.716 379.203C412.593 386.057 429.776 383.53 433.163 381.607" stroke="#1F1D2E" stroke-width="1.5" stroke-linecap="round"></path>
  <path d="M447.481 549.442C445.25 562.825 438.559 564.498 438.559 557.806C438.559 551.115 440.789 543.308 434.312 534.221C433.33 533.861 428.596 532.497 423.062 530.943C417.783 532.478 413.083 534.18 409.363 536.14V546.673C409.363 556.288 407.709 562.192 405.008 563.981C400.653 566.865 399.201 557.25 399.201 546.673C399.201 540.335 403.245 538.63 409.363 536.14C413.083 534.18 417.783 532.478 423.062 530.943C428.596 532.497 433.33 533.861 434.312 534.221C446.365 537.174 448.89 540.988 447.481 549.442Z" fill="white"></path>
  <path d="M434.312 534.221C432.175 533.438 412.266 527.897 405.008 525.999C395.814 523.596 381.309 520.845 364.58 516.384C357.331 514.451 357.062 508.663 370.714 505.789C380.751 503.676 387.443 503.001 394.692 502.443M434.312 534.221C446.365 537.174 448.89 540.988 447.481 549.442C445.25 562.825 438.559 564.498 438.559 557.806C438.559 551.115 440.789 543.308 434.312 534.221ZM409.363 536.14C426.784 526.961 465.713 523.426 484.855 516.384C493.95 513.038 491.161 508.02 478.893 505.789C470.081 504.187 459.934 503.559 447.109 502.443M409.363 536.14C403.245 538.63 399.201 540.335 399.201 546.673C399.201 557.25 400.653 566.865 405.008 563.981C407.709 562.192 409.363 556.288 409.363 546.673C409.363 543.885 409.363 538.313 409.363 536.14Z" stroke="#1F1D2E" stroke-width="1.5" stroke-linecap="round"></path>
  <path d="M409.346 500.198L465.519 472.132C466.139 471.822 466.859 471.772 467.518 471.994L495.014 481.254C497.205 481.992 497.422 484.993 495.36 486.024L439.187 514.09C438.567 514.399 437.847 514.449 437.189 514.227L409.692 504.967C407.501 504.23 407.284 501.228 409.346 500.198Z" fill="white" stroke="#1F1D2E" stroke-width="1.5" stroke-linecap="round"></path>
  <path d="M446.396 463.353L500.006 436.723C501.883 435.79 504.034 437.352 503.729 439.425L497.171 484.031C497.048 484.872 496.52 485.6 495.758 485.978L442.148 512.609C440.272 513.541 438.121 511.98 438.425 509.906L444.983 465.3C445.107 464.459 445.635 463.732 446.396 463.353Z" fill="#1F1D2E" stroke="#1F1D2E" stroke-width="1.5" stroke-linecap="round"></path>
  <path d="M515.073 480.32H565.401V421.666" stroke="#1F1D2E" stroke-width="1.5" stroke-miterlimit="10" stroke-linecap="round"></path>
  <ellipse cx="515.073" cy="480.319" rx="3.87086" ry="3.84635" fill="#1F1D2E"></ellipse>
</svg>
