<svg width="330" height="252" viewBox="0 0 330 252" fill="none" xmlns="http://www.w3.org/2000/svg">
    <g clip-path="url(#clip0_1083_561)">
        
        <path d="M167.952 182L10.1741 182C8.71903 177.146 16.7052 165.665 22.1441 170.836C19.9286 162.584 24.4131 149.173 32.4722 160.822C32.4722 148.992 45.8379 148.992 49.4831 160.822C54.9509 148.992 66.5583 144.451 77.4295 156.587C75.6069 140.25 81.6823 137.506 89.5802 143.276C89.5802 130.569 105.984 123.914 112.059 137.506C120.564 129.359 129.953 135.886 126.928 148.992C135.753 143.276 148.126 149.999 144.75 170.836C151.297 165.981 169.043 173.748 167.952 182Z" fill="white" stroke="#6D6D6D" stroke-width="1.5"/>
        <path d="M127.483 93H326.232C330.216 84.2874 317.762 78.4871 310.332 84.2874C313.359 75.0303 294.642 61.9613 283.632 75.0302C290.238 61.9613 279.779 48.8561 271.521 55.9714C271.521 43.0861 262.465 45.8348 257.257 52.1592C257.257 36.5978 243.255 36.9126 241.267 55.9714C237.026 47.3902 232.735 52.1592 226.858 61.9613C226.858 43.0861 215.303 37.7797 208.763 47.5244C203.625 27.5708 172.795 27.571 172.795 61.9614C167.826 56.516 151.83 61.9613 157.792 75.0302C142.431 67.942 123.746 75.0302 127.483 93Z" fill="white" stroke="#6D6D6D" stroke-width="1.5"/>
        <path d="M202.281 124.649C202.281 129.671 201.163 133.019 200.604 135.809M200.604 94.4609C201.722 96.6929 201.264 99.8861 201.264 102.118" stroke="#6D6D6D" stroke-width="1.5"/>
        <path d="M211.854 103.138C208.275 101.257 204.696 101.096 201.628 101.096C198.56 101.096 194.47 102.088 191.361 104.669C188.252 107.25 192.368 117.545 195.492 122.535C198.049 126.619 203.673 126.109 206.741 122.535C209.809 118.962 211.854 114.878 213.388 111.816C214.922 108.753 215.433 105.018 211.854 103.138Z" fill="white"/>
        <path d="M208.347 145.341C207.788 140.319 207.229 137.529 203.52 134.555C199.81 131.581 197.168 133.623 195.492 135.297L195.483 135.307C193.808 136.98 191.576 139.209 189.903 141.993C188.227 144.783 186.55 146.457 188.786 148.131C191.022 149.805 199.834 151.616 203.317 150.921C206.111 150.363 208.719 148.689 208.347 145.341Z" fill="white"/>
        <path d="M211.854 103.138C208.275 101.257 204.696 101.096 201.628 101.096C198.56 101.096 194.47 102.088 191.361 104.669C188.252 107.25 192.368 117.545 195.492 122.535C198.049 126.619 203.673 126.109 206.741 122.535C209.809 118.962 211.854 114.878 213.388 111.816C214.922 108.753 215.433 105.018 211.854 103.138Z" stroke="#6D6D6D" stroke-width="1.5"/>
        <path d="M208.347 145.341C207.788 140.319 207.229 137.529 203.52 134.555C199.81 131.581 197.168 133.623 195.492 135.297L195.483 135.307C193.808 136.98 191.576 139.209 189.903 141.993C188.227 144.783 186.55 146.457 188.786 148.131C191.022 149.805 199.834 151.616 203.317 150.921C206.111 150.363 208.719 148.689 208.347 145.341Z" stroke="#6D6D6D" stroke-width="1.5"/>
        <path d="M139.096 165.406C140.211 163.71 141.326 161.448 138.539 158.621C135.752 160.883 134.079 162.579 132.965 163.71C131.851 164.841 130.269 165.88 128.507 167.668C126.835 169.364 129.652 170.302 131.851 169.93C135.195 169.364 137.981 167.103 139.096 165.406Z" fill="white"/>
        <path d="M184.244 147.877C174.211 146.181 155.818 140.187 151.917 143.354C149.827 145.05 147.457 147.312 144.67 150.705C141.883 154.097 140.211 156.359 138.539 158.621M138.539 158.621C141.326 161.448 140.211 163.71 139.096 165.406C137.981 167.103 135.195 169.364 131.851 169.93C129.652 170.302 126.835 169.364 128.507 167.668C130.269 165.88 131.851 164.841 132.965 163.71C134.079 162.579 135.752 160.883 138.539 158.621Z" stroke="#6D6D6D" stroke-width="1.5"/>
        <path d="M200.283 147.287C201.362 146.882 201.369 145.365 200.295 144.955L171.677 134.052C171.393 133.944 171.078 133.942 170.792 134.048L156.821 139.233C155.748 139.631 155.725 141.135 156.786 141.559L184.784 152.761C185.075 152.877 185.399 152.881 185.693 152.77L200.283 147.287Z" fill="white" stroke="#6D6D6D" stroke-width="1.5" stroke-linecap="round"/>
        <path d="M180.604 129.507C180.497 129.128 180.217 128.822 179.849 128.681L151.602 117.864C150.663 117.505 149.705 118.345 149.94 119.323L154.96 140.285C155.056 140.682 155.339 141.008 155.719 141.157L185.086 152.692C186.048 153.07 187.027 152.183 186.745 151.188L180.604 129.507Z" fill="#6D6D6D" stroke="#6D6D6D" stroke-width="1.5" stroke-linecap="round"/>
        <path d="M176.261 210.371C178.024 206.413 178.306 202.204 174.019 199.618C171.148 203.735 169.103 208.329 169.103 208.329C169.103 208.329 166.866 213.673 169.102 216.497C170.664 218.469 174.216 214.966 176.261 210.371Z" fill="white"/>
        <path d="M200.606 151.123C183.93 160.312 181.491 170.487 179.643 175.115C175.572 185.31 177.284 188.932 174.019 199.618M174.019 199.618C178.306 202.204 178.024 206.413 176.261 210.371C174.216 214.966 170.664 218.469 169.102 216.497C166.866 213.673 169.103 208.329 169.103 208.329C169.103 208.329 171.148 203.735 174.019 199.618Z" stroke="#6D6D6D" stroke-width="1.5" stroke-linecap="round"/>
        <path d="M215.157 109.315C215.186 108.902 214.874 108.544 214.461 108.515C214.047 108.487 213.689 108.799 213.661 109.212L215.157 109.315ZM206.166 136.761L206.543 137.409V137.409L206.166 136.761ZM213.661 109.212C213.102 117.292 211.767 123.685 210.229 128.247C209.459 130.529 208.644 132.338 207.858 133.667C207.06 135.018 206.337 135.794 205.789 136.112L206.543 137.409C207.427 136.895 208.31 135.85 209.149 134.43C210.002 132.988 210.857 131.077 211.65 128.726C213.236 124.021 214.591 117.499 215.157 109.315L213.661 109.212ZM205.789 136.112C205.357 136.364 204.586 136.669 203.506 137.012C202.442 137.35 201.126 137.709 199.637 138.081C196.66 138.825 193.022 139.609 189.379 140.356C182.135 141.841 174.792 143.194 172.788 143.765L173.199 145.207C175.131 144.657 182.339 143.331 189.68 141.826C193.329 141.077 196.992 140.288 200.001 139.537C201.505 139.161 202.854 138.793 203.96 138.441C205.051 138.095 205.958 137.749 206.543 137.409L205.789 136.112Z" fill="#6D6D6D"/>
        <path d="M191.129 110.285C191.129 109.871 190.794 109.535 190.379 109.535C189.965 109.535 189.629 109.871 189.629 110.285H191.129ZM186.8 129.683L186.236 129.189L186.8 129.683ZM189.629 110.285C189.629 114.383 189.628 118.157 189.189 121.415C188.749 124.675 187.883 127.309 186.236 129.189L187.364 130.177C189.296 127.973 190.22 124.992 190.675 121.616C191.131 118.238 191.129 114.355 191.129 110.285H189.629ZM186.236 129.189C184.521 131.145 181.888 132.93 179.343 134.703C178.088 135.577 176.859 136.447 175.823 137.314C174.795 138.175 173.901 139.078 173.363 140.036L174.672 140.77C175.074 140.052 175.8 139.289 176.786 138.464C177.764 137.645 178.941 136.811 180.2 135.934C182.681 134.205 185.5 132.304 187.364 130.177L186.236 129.189Z" fill="#6D6D6D"/>
        <path d="M204.592 86.177C204.643 90.7105 202.446 92.5066 200.867 94.0124C199.594 95.2264 197.345 96.531 196.19 96.7342C193.73 97.1208 191.451 94.0423 190.175 92.428C188.898 90.8136 187.874 88.1443 187.346 86.6147C186.639 84.5626 186.137 82.0096 186.491 79.9513C186.846 77.8931 187.379 76.5837 190.747 74.9846C194.116 73.3855 196.573 72.4912 199.229 73.4926C201.885 74.4941 203.012 77.4696 203.658 79.8519C204.198 81.8421 204.568 84.1135 204.592 86.177Z" fill="white"/>
        <path d="M190.747 74.9846C187.379 76.5837 186.846 77.8931 186.491 79.9513C186.137 82.0096 186.639 84.5626 187.346 86.6147M190.747 74.9846C188.152 78.5101 189.42 83.2659 190.545 87.0856M190.747 74.9846C194.116 73.3855 196.573 72.4912 199.229 73.4926C201.885 74.4941 203.012 77.4696 203.658 79.8519M190.545 87.0856C190.697 87.5994 190.845 88.0964 190.982 88.5711C191.998 92.1073 194.224 94.6859 196.19 96.7342M190.545 87.0856C189.268 87.1374 188.092 86.9709 187.346 86.6147M190.545 87.0856C191.819 87.0338 193.192 86.7649 194.339 86.25C196.637 85.219 200.53 83.6759 203.658 79.8519M196.19 96.7342C193.73 97.1208 191.451 94.0423 190.175 92.428C188.898 90.8136 187.874 88.1443 187.346 86.6147M196.19 96.7342C197.345 96.531 199.594 95.2264 200.867 94.0124C202.446 92.5066 204.643 90.7105 204.592 86.177C204.568 84.1135 204.198 81.8421 203.658 79.8519" stroke="#6D6D6D" stroke-width="1.5"/>
    </g>

</svg>
